<?xml version="1.0" encoding="UTF-8"?>
<svg xmlns="http://www.w3.org/2000/svg" viewBox="110 140 580 540" width="480" height="480" role="img" aria-label="Neon Rush crate">
  <!-- prismloot:neon-rush:thumb -->
  <defs>
    <radialGradient id="neonrush-thumbglow" cx="50%" cy="38%" r="50%">
      <stop offset="0" stop-color="rgba(34,211,238,0.32)"/>
      <stop offset="1" stop-color="rgba(5,5,8,0)"/>
    </radialGradient>
    <linearGradient id="neonrush-mg" x1="0" y1="0" x2="1" y2="1">
      <stop offset="0" stop-color="#22d3ee"/><stop offset="1" stop-color="#ec4899"/>
    </linearGradient>
    <filter id="neonrush-thumbblur"><feGaussianBlur stdDeviation="14"/></filter>
    <radialGradient id="neonrush-thumbfloor" cx="50%" cy="50%" r="50%">
      <stop offset="0" stop-color="rgba(34,211,238,0.22)"/><stop offset="1" stop-color="rgba(0,0,0,0)"/>
    </radialGradient>
  </defs>
  <rect width="800" height="800" fill="#07070c"/>
  <rect width="800" height="800" fill="url(#neonrush-thumbglow)"/>
  <ellipse cx="400" cy="600" rx="230" ry="36" fill="url(#neonrush-thumbfloor)"/>
  <circle cx="400" cy="330" r="160" fill="#22d3ee" opacity="0.12" filter="url(#neonrush-thumbblur)"/>
  <circle cx="498" cy="428" r="1.4" fill="#ec4899" opacity="0.25"/><circle cx="624" cy="506" r="1.9249999999999998" fill="#22d3ee" opacity="0.35"/><circle cx="190" cy="584" r="2.4499999999999997" fill="#ec4899" opacity="0.45"/><circle cx="316" cy="142" r="2.9749999999999996" fill="#22d3ee" opacity="0.55"/><circle cx="442" cy="220" r="3.4999999999999996" fill="#ec4899" opacity="0.65"/><circle cx="568" cy="298" r="1.4" fill="#22d3ee" opacity="0.25"/><circle cx="134" cy="376" r="1.9249999999999998" fill="#ec4899" opacity="0.35"/>
  
  <g>
    <linearGradient id="neonrush-bodylid" x1="0" y1="1" x2="0" y2="0">
      <stop offset="0" stop-color="#226f81"/><stop offset="1" stop-color="#538f9d"/>
    </linearGradient>
    <linearGradient id="neonrush-bodyside" x1="0" y1="0" x2="1" y2="1">
      <stop offset="0" stop-color="#504666"/><stop offset="1" stop-color="#5b2344"/>
    </linearGradient>
    <linearGradient id="neonrush-bodyfront" x1="0" y1="0" x2="0" y2="1">
      <stop offset="0" stop-color="#1c879b"/><stop offset="1" stop-color="#124d59"/>
    </linearGradient>
    <clipPath id="neonrush-clip"><rect x="249" y="308" width="302" height="190" rx="6"/></clipPath>
    <ellipse cx="400" cy="562" rx="154.56" ry="22" fill="#000" opacity=".55"/>
    <polygon points="561,254 637,194 637,454 561,514" fill="url(#neonrush-bodyside)" stroke="#c1f3fa" stroke-width="1.2"/>
    <polygon points="239,254 315,194 637,194 561,254" fill="url(#neonrush-bodylid)" stroke="#c1f3fa" stroke-width="1.6"/>
    <rect x="239" y="254" width="322" height="42" fill="url(#neonrush-bodylid)" stroke="#c1f3fa" stroke-width="1.2"/>
    <rect x="239" y="296" width="322" height="218" fill="url(#neonrush-bodyfront)" stroke="#c1f3fa" stroke-width="1.5"/>
    <g clip-path="url(#neonrush-clip)">
      <rect x="249" y="308" width="302" height="190" fill="#135866"/>
      <rect x="209" y="308" width="22" height="190" transform="skewX(-18)" fill="#ec4899" opacity=".28"/><rect x="267" y="308" width="22" height="190" transform="skewX(-18)" fill="#22d3ee" opacity=".28"/><rect x="325" y="308" width="22" height="190" transform="skewX(-18)" fill="#ec4899" opacity=".28"/><rect x="383" y="308" width="22" height="190" transform="skewX(-18)" fill="#22d3ee" opacity=".28"/><rect x="441" y="308" width="22" height="190" transform="skewX(-18)" fill="#ec4899" opacity=".28"/><rect x="499" y="308" width="22" height="190" transform="skewX(-18)" fill="#22d3ee" opacity=".28"/><rect x="557" y="308" width="22" height="190" transform="skewX(-18)" fill="#ec4899" opacity=".28"/>
    </g>
    <rect x="249" y="308" width="302" height="190" rx="6" fill="none" stroke="#22d3ee" stroke-opacity=".35"/>
    <g opacity=".92"><ellipse cx="400" cy="409.36" rx="20.4" ry="9.120000000000001" fill="none" stroke="#22d3ee" stroke-width="4"/>
        <ellipse cx="400" cy="409.36" rx="9.120000000000001" ry="20.4" fill="none" stroke="#ec4899" stroke-width="4"/>
        <circle cx="400" cy="409.36" r="4.800000000000001" fill="#fff"/></g>
    <rect x="275" y="268" width="54" height="16" rx="3" fill="#87abbc" stroke="#fff" stroke-opacity=".3"/>
    <rect x="471" y="268" width="54" height="16" rx="3" fill="#87abbc" stroke="#fff" stroke-opacity=".3"/>
    <rect x="247" y="504" width="306" height="8" fill="#3b1226"/>
    
    <text x="261" y="496" font-family="Arial Black,Impact,sans-serif" font-size="11" letter-spacing="1.6" fill="#22d3ee" fill-opacity=".45">NEON RUSH</text>
  </g>
</svg>