<?xml version="1.0" encoding="UTF-8"?>
<svg xmlns="http://www.w3.org/2000/svg" viewBox="110 140 580 540" width="480" height="480" role="img" aria-label="Pulse crate">
  <!-- prismloot:pulse-case:thumb -->
  <defs>
    <radialGradient id="pulsecase-thumbglow" cx="50%" cy="38%" r="50%">
      <stop offset="0" stop-color="rgba(251,113,133,0.32)"/>
      <stop offset="1" stop-color="rgba(5,5,8,0)"/>
    </radialGradient>
    <linearGradient id="pulsecase-mg" x1="0" y1="0" x2="1" y2="1">
      <stop offset="0" stop-color="#fb7185"/><stop offset="1" stop-color="#22d3ee"/>
    </linearGradient>
    <filter id="pulsecase-thumbblur"><feGaussianBlur stdDeviation="14"/></filter>
    <radialGradient id="pulsecase-thumbfloor" cx="50%" cy="50%" r="50%">
      <stop offset="0" stop-color="rgba(251,113,133,0.22)"/><stop offset="1" stop-color="rgba(0,0,0,0)"/>
    </radialGradient>
  </defs>
  <rect width="800" height="800" fill="#07070c"/>
  <rect width="800" height="800" fill="url(#pulsecase-thumbglow)"/>
  <ellipse cx="400" cy="600" rx="230" ry="36" fill="url(#pulsecase-thumbfloor)"/>
  <circle cx="400" cy="330" r="160" fill="#fb7185" opacity="0.12" filter="url(#pulsecase-thumbblur)"/>
  <circle cx="301" cy="571" r="1.4" fill="#22d3ee" opacity="0.25"/><circle cx="548" cy="142" r="1.9249999999999998" fill="#fb7185" opacity="0.35"/><circle cx="235" cy="233" r="2.4499999999999997" fill="#22d3ee" opacity="0.45"/><circle cx="482" cy="324" r="2.9749999999999996" fill="#fb7185" opacity="0.55"/><circle cx="169" cy="415" r="3.4999999999999996" fill="#22d3ee" opacity="0.65"/><circle cx="416" cy="506" r="1.4" fill="#fb7185" opacity="0.25"/><circle cx="663" cy="597" r="1.9249999999999998" fill="#22d3ee" opacity="0.35"/>
  
  <g>
    <linearGradient id="pulsecase-bodylid" x1="0" y1="1" x2="0" y2="0">
      <stop offset="0" stop-color="#7d4655"/><stop offset="1" stop-color="#9a6f7a"/>
    </linearGradient>
    <linearGradient id="pulsecase-bodyside" x1="0" y1="0" x2="1" y2="1">
      <stop offset="0" stop-color="#425a69"/><stop offset="1" stop-color="#145462"/>
    </linearGradient>
    <linearGradient id="pulsecase-bodyfront" x1="0" y1="0" x2="0" y2="1">
      <stop offset="0" stop-color="#9d4d5e"/><stop offset="1" stop-color="#582d37"/>
    </linearGradient>
    <clipPath id="pulsecase-clip"><rect x="248" y="308" width="304" height="190" rx="6"/></clipPath>
    <ellipse cx="400" cy="562" rx="155.51999999999998" ry="22" fill="#000" opacity=".55"/>
    <polygon points="562,254 633,191 633,451 562,514" fill="url(#pulsecase-bodyside)" stroke="#fed7dd" stroke-width="1.2"/>
    <polygon points="238,254 309,191 633,191 562,254" fill="url(#pulsecase-bodylid)" stroke="#fed7dd" stroke-width="1.6"/>
    <rect x="238" y="254" width="324" height="42" fill="url(#pulsecase-bodylid)" stroke="#fed7dd" stroke-width="1.2"/>
    <rect x="238" y="296" width="324" height="218" fill="url(#pulsecase-bodyfront)" stroke="#fed7dd" stroke-width="1.5"/>
    <g clip-path="url(#pulsecase-clip)">
      <rect x="248" y="308" width="304" height="190" fill="#66323e"/>
      <rect x="208" y="308" width="22" height="190" transform="skewX(-18)" fill="#22d3ee" opacity=".28"/><rect x="266" y="308" width="22" height="190" transform="skewX(-18)" fill="#fb7185" opacity=".28"/><rect x="324" y="308" width="22" height="190" transform="skewX(-18)" fill="#22d3ee" opacity=".28"/><rect x="382" y="308" width="22" height="190" transform="skewX(-18)" fill="#fb7185" opacity=".28"/><rect x="440" y="308" width="22" height="190" transform="skewX(-18)" fill="#22d3ee" opacity=".28"/><rect x="498" y="308" width="22" height="190" transform="skewX(-18)" fill="#fb7185" opacity=".28"/><rect x="556" y="308" width="22" height="190" transform="skewX(-18)" fill="#22d3ee" opacity=".28"/>
    </g>
    <rect x="248" y="308" width="304" height="190" rx="6" fill="none" stroke="#fb7185" stroke-opacity=".35"/>
    <g opacity=".92"><polyline points="376,409.36 389.2,409.36 394.72,392.56 400,427.36 405.28,400.96000000000004 410.8,409.36 424,409.36" fill="none" stroke="#fb7185" stroke-width="6" stroke-linejoin="round"/></g>
    <rect x="274" y="268" width="54" height="16" rx="3" fill="#aa9bab" stroke="#fff" stroke-opacity=".3"/>
    <rect x="472" y="268" width="54" height="16" rx="3" fill="#aa9bab" stroke="#fff" stroke-opacity=".3"/>
    <rect x="246" y="504" width="308" height="8" fill="#09353c"/>
    
    <text x="260" y="496" font-family="Arial Black,Impact,sans-serif" font-size="11" letter-spacing="1.6" fill="#fb7185" fill-opacity=".45">PULSE</text>
  </g>
</svg>